<svg width="100" height="100" viewBox="0 0 100 100" fill="none" xmlns="http://www.w3.org/2000/svg">
<path d="M39.1218 51.349L37.957 48.2885H28.0401L26.8753 51.4155C26.4205 52.6353 26.0323 53.4614 25.7106 53.8938C25.3889 54.3152 24.862 54.5259 24.1299 54.5259C23.5087 54.5259 22.9596 54.2986 22.4826 53.8439C22.0056 53.3893 21.7671 52.8737 21.7671 52.2971C21.7671 51.9644 21.8226 51.6207 21.9335 51.2658C22.0444 50.911 22.2274 50.4175 22.4826 49.7855L28.7223 33.951C28.8998 33.4963 29.1105 32.953 29.3546 32.3209C29.6097 31.6778 29.8759 31.1455 30.1532 30.7242C30.4417 30.3028 30.8133 29.9646 31.2681 29.7096C31.734 29.4434 32.3052 29.3104 32.9819 29.3104C33.6697 29.3104 34.2409 29.4434 34.6957 29.7096C35.1616 29.9646 35.5333 30.2973 35.8106 30.7075C36.099 31.1178 36.3375 31.5614 36.5261 32.0382C36.7257 32.5039 36.9753 33.1304 37.2748 33.9177L43.6476 49.6524C44.1468 50.85 44.3964 51.7205 44.3964 52.2638C44.3964 52.8293 44.1579 53.3505 43.6809 53.8273C43.215 54.293 42.6493 54.5259 41.9837 54.5259C41.5955 54.5259 41.2627 54.4538 40.9854 54.3097C40.708 54.1766 40.4751 53.9936 40.2865 53.7608C40.0979 53.5168 39.8927 53.1509 39.6709 52.663C39.4601 52.164 39.2771 51.726 39.1218 51.349ZM29.3379 44.5794H36.6259L32.9486 34.5165L29.3379 44.5794Z" fill="white"/>
<path d="M60.8102 50.4011L56.9061 34.7405V51.709C56.9061 52.6479 56.6956 53.3522 56.2748 53.8217C55.865 54.2911 55.3167 54.5259 54.63 54.5259C53.9655 54.5259 53.4228 54.2967 53.0019 53.8384C52.581 53.3689 52.3706 52.6591 52.3706 51.709V32.2589C52.3706 31.1858 52.6475 30.4648 53.2013 30.096C53.7551 29.7159 54.5027 29.5259 55.4441 29.5259H56.9725C57.8918 29.5259 58.5563 29.6097 58.9661 29.7774C59.387 29.9451 59.6971 30.2469 59.8965 30.6828C60.0958 31.1188 60.3229 31.8286 60.5776 32.8123L64.1163 46.2764L67.655 32.8123C67.9097 31.8286 68.1367 31.1188 68.3361 30.6828C68.5355 30.2469 68.84 29.9451 69.2498 29.7774C69.6707 29.6097 70.3408 29.5259 71.2601 29.5259H72.7885C73.7299 29.5259 74.4775 29.7159 75.0313 30.096C75.5851 30.4648 75.862 31.1858 75.862 32.2589V51.709C75.862 52.6479 75.6515 53.3522 75.2307 53.8217C74.8209 54.2911 74.2671 54.5259 73.5693 54.5259C72.9159 54.5259 72.3787 54.2911 71.9578 53.8217C71.537 53.3522 71.3265 52.6479 71.3265 51.709V34.7405L67.4224 50.4011C67.1676 51.4183 66.9572 52.1673 66.7911 52.6479C66.636 53.1174 66.3425 53.5478 65.9105 53.939C65.4786 54.3303 64.8805 54.5259 64.1163 54.5259C63.5404 54.5259 63.053 54.3973 62.6543 54.1402C62.2556 53.8943 61.9455 53.5757 61.724 53.1845C61.5025 52.7933 61.3252 52.3629 61.1923 51.8934C61.0705 51.4128 60.9431 50.9153 60.8102 50.4011Z" fill="white"/>
<path fill-rule="evenodd" clip-rule="evenodd" d="M50 95C74.8528 95 95 74.8528 95 50C95 25.1472 74.8528 5 50 5C25.1472 5 5 25.1472 5 50C5 74.8528 25.1472 95 50 95ZM50 100C77.6142 100 100 77.6142 100 50C100 22.3858 77.6142 0 50 0C22.3858 0 0 22.3858 0 50C0 77.6142 22.3858 100 50 100Z" fill="white"/>
<path fill-rule="evenodd" clip-rule="evenodd" d="M21.6966 64.7943C22.8829 64.0822 24.4163 64.4761 25.1214 65.6743C26.3474 67.7575 29.4282 71.0226 33.8614 73.7727C38.2515 76.496 43.7445 78.5731 49.7089 78.5731C55.0283 78.5731 60.1377 76.5319 64.4715 73.7854C68.8035 71.04 72.1817 67.7018 73.9909 65.3962C74.8481 64.3039 76.4198 64.1201 77.5014 64.9859C78.583 65.8516 78.7649 67.439 77.9077 68.5313C75.7561 71.2733 71.9553 75.0016 67.1279 78.0609C62.3023 81.1191 56.272 83.6207 49.7089 83.6207C42.6026 83.6207 36.2131 81.1551 31.2458 78.0737C26.3216 75.0191 22.5699 71.2177 20.8253 68.2533C20.1202 67.0551 20.5102 65.5065 21.6966 64.7943Z" fill="white"/>
</svg>
